# xmcd
#
# Track frame offsets: 
#        150
#        25966
#        49271
#        78410
#        106326
#        123931
#
# Disc length: 1970 seconds
#
# Revision: 0
# Processed by: cddbd v1.5.2PL0 Copyright (c) Steve Scherf et al.
# Submitted via: ExactAudioCopy v0.95a5
#
DISCID=4507b006
DTITLE=Krzysztof Gluch -  Oscillate cd1
DYEAR=2016
DGENRE=Blues
TTITLE0=Overyflow
TTITLE1=Hold on step back wait out
TTITLE2=2 hearts 2 wars
TTITLE3=Between my secrets
TTITLE4=Gone for good
TTITLE5=Be squre with him
EXTD=
EXTT0=
EXTT1=
EXTT2=
EXTT3=
EXTT4=
EXTT5=
PLAYORDER=
